<?xml version="1.0" encoding="utf-8"?>
<!-- Generator: Adobe Illustrator 21.0.0, SVG Export Plug-In . SVG Version: 6.00 Build 0)  -->
<svg version="1.1" id="Calque_1" xmlns="http://www.w3.org/2000/svg" xmlns:xlink="http://www.w3.org/1999/xlink" x="0px" y="0px"
	 viewBox="0 0 100 104" style="enable-background:new 0 0 100 104;" xml:space="preserve">
<g>
	<g>
		<polygon points="64,59.7 54.7,59.7 54.7,13.1 45.5,13.1 45.3,59.7 36,59.7 50,78.3 		"/>
		<g>
			<path d="M64,58.7c-3.1,0-6.2,0-9.3,0c0.3,0.3,0.7,0.7,1,1c0-15.5,0-31,0-46.5c0-0.5-0.5-1-1-1c-3.1,0-6.1,0-9.2,0
				c-0.5,0-1,0.5-1,1c0,15.5-0.1,31-0.1,46.5c0.3-0.3,0.7-0.7,1-1c-3.1,0-6.2,0-9.3,0c-0.7,0-1.3,0.9-0.9,1.5
				c4.6,6.2,9.3,12.4,13.9,18.6c0.5,0.6,1.2,0.6,1.7,0c4.6-6.2,9.3-12.4,13.9-18.6c0.8-1-1-2-1.7-1c-4.6,6.2-9.3,12.4-14,18.6
				c0.6,0,1.2,0,1.7,0c-4.7-6.2-9.3-12.4-14-18.6c-0.3,0.5-0.6,1-0.9,1.5c3.1,0,6.2,0,9.3,0c0.5,0,1-0.5,1-1c0-15.5,0.1-31,0.1-46.5
				c-0.3,0.3-0.7,0.7-1,1c3.1,0,6.1,0,9.2,0c-0.3-0.3-0.7-0.7-1-1c0,15.5,0,31,0,46.5c0,0.5,0.5,1,1,1c3.1,0,6.2,0,9.3,0
				C65.2,60.7,65.2,58.7,64,58.7z"/>
		</g>
	</g>
	<g>
		<polygon points="82.6,78.3 82.6,87.6 17.5,87.6 17.5,78.3 8.1,78.3 8.1,96.8 91.8,96.8 91.8,78.3 		"/>
		<g>
			<path d="M81.6,78.3c0,3.1,0,6.2,0,9.3c0.3-0.3,0.7-0.7,1-1c-21.7,0-43.4,0-65.1,0c0.3,0.3,0.7,0.7,1,1c0-3.1,0-6.2,0-9.3
				c0-0.5-0.5-1-1-1c-3.1,0-6.2,0-9.3,0c-0.5,0-1,0.5-1,1c0,6.2,0,12.4,0,18.6c0,0.5,0.5,1,1,1c27.9,0,55.8,0,83.7,0
				c0.5,0,1-0.5,1-1c0-6.2,0-12.4,0-18.6c0-0.5-0.5-1-1-1c-3.1,0-6.2,0-9.3,0c-1.3,0-1.3,2,0,2c3.1,0,6.2,0,9.3,0
				c-0.3-0.3-0.7-0.7-1-1c0,6.2,0,12.4,0,18.6c0.3-0.3,0.7-0.7,1-1c-27.9,0-55.8,0-83.7,0c0.3,0.3,0.7,0.7,1,1c0-6.2,0-12.4,0-18.6
				c-0.3,0.3-0.7,0.7-1,1c3.1,0,6.2,0,9.3,0c-0.3-0.3-0.7-0.7-1-1c0,3.1,0,6.2,0,9.3c0,0.5,0.5,1,1,1c21.7,0,43.4,0,65.1,0
				c0.5,0,1-0.5,1-1c0-3.1,0-6.2,0-9.3C83.6,77,81.6,77,81.6,78.3z"/>
		</g>
	</g>
</g>
</svg>
