<?xml version="1.0" encoding="utf-8"?>
<!-- Generator: Adobe Illustrator 17.0.0, SVG Export Plug-In . SVG Version: 6.00 Build 0)  -->
<!DOCTYPE svg PUBLIC "-//W3C//DTD SVG 1.1//EN" "http://www.w3.org/Graphics/SVG/1.1/DTD/svg11.dtd">
<svg version="1.1" id="Calque_1" xmlns="http://www.w3.org/2000/svg" xmlns:xlink="http://www.w3.org/1999/xlink" x="0px" y="0px"
	 width="524.41px" height="524.41px" viewBox="0 0 524.41 524.41" enable-background="new 0 0 524.41 524.41" xml:space="preserve">
<path fill="none" stroke="#010202" stroke-width="15.7007" stroke-linecap="round" stroke-linejoin="round" d="M497.285,365.312
	c0,6.121-4.962,11.083-11.083,11.083H46.784c-6.121,0-11.083-4.962-11.083-11.083V135.996c0-6.121,4.962-11.083,11.083-11.083
	h439.417c6.121,0,11.083,4.962,11.083,11.083v229.316H497.285z"/>
<path fill="none" stroke="#010202" stroke-width="18.0333" stroke-linecap="round" stroke-linejoin="round" d="M315.573,123.978
	l41.149-65.203h100.816c0,0,30.51-1.646,30.51,20.575c0,30.909,0,44.628,0,44.628"/>
<path fill="none" stroke="#010202" stroke-width="15.7007" stroke-linecap="round" stroke-linejoin="round" d="M497.285,441.478
	c0,6.121-4.962,11.083-11.083,11.083H46.784c-6.121,0-11.083-4.962-11.083-11.083V212.163c0-6.121,4.962-11.083,11.083-11.083
	h439.417c6.121,0,11.083,4.962,11.083,11.083v229.315H497.285z"/>
<polyline fill="none" stroke="#010202" stroke-width="18.0333" stroke-linecap="round" stroke-linejoin="round" points="
	224.085,122.179 265.235,56.976 366.051,56.976 "/>
<polyline fill="none" stroke="#010202" stroke-width="18.0333" stroke-linecap="round" stroke-linejoin="round" points="
	143.097,122.179 184.246,56.976 285.062,56.976 "/>
<path fill="none" stroke="#010202" stroke-width="15.7007" stroke-linecap="round" stroke-linejoin="round" d="M165.531,314.82
	c0,6.627,5.373,12,12,12h188.673c6.627,0,12-5.373,12-12v-52.166c0-6.627-5.373-12-12-12H177.531c-6.627,0-12,5.373-12,12V314.82z"
	/>
</svg>
