<?xml version="1.0" encoding="utf-8"?>
<!-- Generator: Adobe Illustrator 17.0.0, SVG Export Plug-In . SVG Version: 6.00 Build 0)  -->
<!DOCTYPE svg PUBLIC "-//W3C//DTD SVG 1.1//EN" "http://www.w3.org/Graphics/SVG/1.1/DTD/svg11.dtd">
<svg version="1.1" id="Calque_1" xmlns="http://www.w3.org/2000/svg" xmlns:xlink="http://www.w3.org/1999/xlink" x="0px" y="0px"
	 width="524.41px" height="524.41px" viewBox="0 0 524.41 524.41" enable-background="new 0 0 524.41 524.41" xml:space="preserve">
<path fill="none" stroke="#010202" stroke-width="17" stroke-linecap="round" stroke-linejoin="round" stroke-miterlimit="10" d="
	M263.191,122.673l-107,59.293h-99.36c-5.104,0-9.242,5.373-9.242,12.001v144.29c0,6.628,4.138,12.001,9.242,12.001h99.36l107,59.293
	c4.098,0,7.42-3.322,7.42-7.42V130.093C270.612,125.995,267.289,122.673,263.191,122.673z"/>
<path fill="none" stroke="#010202" stroke-width="17" stroke-linecap="round" stroke-linejoin="round" stroke-miterlimit="10" d="
	M329.961,331.372c16.77-9.519,28.771-34.974,28.771-64.881c0-30.742-12.68-56.779-30.186-65.64"/>
<path fill="none" stroke="#010202" stroke-width="18" stroke-linecap="round" stroke-linejoin="round" stroke-miterlimit="10" d="
	M367.426,381.372c29.126-16.532,49.969-60.742,49.969-112.682c0-53.391-22.022-98.612-52.426-114.002"/>
<path fill="none" stroke="#010202" stroke-width="19" stroke-linecap="round" stroke-linejoin="round" stroke-miterlimit="10" d="
	M412.733,409.454c37.594-21.338,64.495-78.4,64.495-145.441c0-68.912-28.424-127.28-67.668-147.144"/>
</svg>
