<?xml version="1.0" encoding="utf-8"?>
<!-- Generator: Adobe Illustrator 17.0.0, SVG Export Plug-In . SVG Version: 6.00 Build 0)  -->
<!DOCTYPE svg PUBLIC "-//W3C//DTD SVG 1.1//EN" "http://www.w3.org/Graphics/SVG/1.1/DTD/svg11.dtd">
<svg version="1.1" id="Calque_1" xmlns="http://www.w3.org/2000/svg" xmlns:xlink="http://www.w3.org/1999/xlink" x="0px" y="0px"
	 width="524.41px" height="524.41px" viewBox="0 0 524.41 524.41" enable-background="new 0 0 524.41 524.41" xml:space="preserve">
<path fill="#010202" d="M42.852,391.53c-1.493,0-2.992-0.285-4.38-0.864c-3.352-1.4-5.472-4.274-5.472-7.421v-255.96
	c0-3.147,2.12-6.021,5.472-7.421s7.356-1.08,10.339,0.822l200.509,127.98c2.454,1.566,3.895,4.008,3.895,6.598
	c0,2.591-1.441,5.032-3.895,6.598L48.81,389.844C47.063,390.958,44.965,391.53,42.852,391.53z M52.706,143.974v222.581
	l174.361-111.29L52.706,143.974z"/>
<path fill="#010202" d="M292.708,391.53c-1.493,0-2.992-0.285-4.38-0.864c-3.352-1.399-5.472-4.274-5.472-7.42V127.285
	c0-3.147,2.12-6.021,5.472-7.421s7.356-1.08,10.339,0.822l200.509,127.98c2.454,1.566,3.895,4.008,3.895,6.598
	c0,2.591-1.441,5.032-3.895,6.598l-200.51,127.98C296.919,390.958,294.82,391.53,292.708,391.53z M302.562,143.974v222.581
	l174.361-111.29L302.562,143.974z"/>
</svg>
