<?xml version="1.0" encoding="utf-8"?>
<!-- Generator: Adobe Illustrator 17.0.0, SVG Export Plug-In . SVG Version: 6.00 Build 0)  -->
<!DOCTYPE svg PUBLIC "-//W3C//DTD SVG 1.1//EN" "http://www.w3.org/Graphics/SVG/1.1/DTD/svg11.dtd">
<svg version="1.1" id="Calque_1" xmlns="http://www.w3.org/2000/svg" xmlns:xlink="http://www.w3.org/1999/xlink" x="0px" y="0px"
	 width="524.41px" height="524.41px" viewBox="0 0 524.41 524.41" enable-background="new 0 0 524.41 524.41" xml:space="preserve">
<path fill="none" stroke="#010202" stroke-width="17" stroke-linecap="round" stroke-linejoin="round" stroke-miterlimit="10" d="
	M138.833,399.739c0,36.172,29.323,65.495,65.495,65.495s69.456-29.541,65.495-65.495c-2.282-20.711,17.744-51.368,31.706-62.353
	c14.832-11.67,67.729-65.921,75.036-78.33c7.041-11.956,24.732-56.144,24.732-81.824c0-66.079-58.863-119.646-131.474-119.646
	c-69.144,0-125.821,48.574-131.076,110.27"/>
<path fill="none" stroke="#010202" stroke-width="17" stroke-linecap="round" stroke-linejoin="round" stroke-miterlimit="10" d="
	M322.783,199.177c0,0,0.842-61.452-58.927-63.978s-74.08,41.249-68.187,93.441c0,0,48.592,10.102,46.604,58.085
	S194.449,330.5,194.449,330.5"/>
</svg>
