<?xml version="1.0" encoding="utf-8"?>
<!-- Generator: Adobe Illustrator 17.0.0, SVG Export Plug-In . SVG Version: 6.00 Build 0)  -->
<!DOCTYPE svg PUBLIC "-//W3C//DTD SVG 1.1//EN" "http://www.w3.org/Graphics/SVG/1.1/DTD/svg11.dtd">
<svg version="1.1" id="Calque_1" xmlns="http://www.w3.org/2000/svg" xmlns:xlink="http://www.w3.org/1999/xlink" x="0px" y="0px"
	 width="524.41px" height="524.41px" viewBox="0 0 524.41 524.41" enable-background="new 0 0 524.41 524.41" xml:space="preserve">
<g>
	<path fill="#020304" d="M380.33,181.111c-1.918-2.212-4.703-3.483-7.631-3.483H270.42h-76.11H92.031
		c-2.928,0-5.712,1.271-7.631,3.483c-1.918,2.213-2.783,5.148-2.369,8.047l42.913,300.397c0.711,4.976,4.973,8.673,10,8.673h59.366
		h76.11h59.366c5.027,0,9.289-3.696,10-8.673L382.7,189.158C383.113,186.259,382.249,183.323,380.33,181.111z M321.025,478.025
		H270.42h-76.11h-50.605L103.678,197.83h90.632h76.11h90.633L321.025,478.025z"/>
	
		<line fill="none" stroke="#020304" stroke-width="18.1147" stroke-linecap="round" stroke-linejoin="round" stroke-miterlimit="10" x1="232.365" y1="293.503" x2="232.365" y2="443.517"/>
	
		<line fill="none" stroke="#020304" stroke-width="18.1147" stroke-linecap="round" stroke-linejoin="round" stroke-miterlimit="10" x1="299.045" y1="294.307" x2="277.133" y2="442.712"/>
	
		<line fill="none" stroke="#020304" stroke-width="18.1147" stroke-linecap="round" stroke-linejoin="round" stroke-miterlimit="10" x1="159.483" y1="294.307" x2="181.395" y2="442.712"/>
	
		<line fill="none" stroke="#020304" stroke-width="17" stroke-linecap="round" stroke-linejoin="round" stroke-miterlimit="10" x1="163.375" y1="32.674" x2="434.715" y2="162.666"/>
	<path fill="none" stroke="#020304" stroke-width="17" stroke-linecap="round" stroke-linejoin="round" stroke-miterlimit="10" d="
		M367.263,113.813c-2.283,4.847-8.063,6.926-12.91,4.643l-92.118-43.383c-4.847-2.283-6.926-8.063-4.643-12.91l11.264-23.918
		c2.283-4.847,8.063-6.926,12.91-4.643l92.118,43.383c4.847,2.283,6.926,8.063,4.643,12.91L367.263,113.813z"/>
</g>
</svg>
