<?xml version="1.0" encoding="utf-8"?>
<!-- Generator: Adobe Illustrator 17.0.0, SVG Export Plug-In . SVG Version: 6.00 Build 0)  -->
<!DOCTYPE svg PUBLIC "-//W3C//DTD SVG 1.1//EN" "http://www.w3.org/Graphics/SVG/1.1/DTD/svg11.dtd">
<svg version="1.1" id="Calque_1" xmlns="http://www.w3.org/2000/svg" xmlns:xlink="http://www.w3.org/1999/xlink" x="0px" y="0px"
	 width="524.41px" height="524.41px" viewBox="0 0 524.41 524.41" enable-background="new 0 0 524.41 524.41" xml:space="preserve">
<g>
	
		<rect x="61.712" y="60.56" fill="none" stroke="#020304" stroke-width="18.1764" stroke-linecap="round" stroke-linejoin="round" stroke-miterlimit="10" width="403.783" height="403.783"/>
	<path fill="none" stroke="#020304" stroke-width="17" stroke-miterlimit="10" d="M305.323,262.452l92.392-92.391
		c11.521-11.521,11.521-30.199,0-41.72c-11.521-11.521-30.199-11.521-41.72,0l-92.392,92.392l-92.391-92.393
		c-11.521-11.521-30.199-11.521-41.72,0c-11.521,11.521-11.521,30.199,0,41.72l92.392,92.391l-92.392,92.392
		c-11.521,11.521-11.521,30.198,0,41.719c5.76,5.761,13.31,8.641,20.86,8.641s15.1-2.88,20.86-8.641l92.392-92.391l92.392,92.391
		c5.76,5.761,13.31,8.641,20.86,8.641s15.1-2.88,20.86-8.641c11.521-11.521,11.521-30.198,0-41.719L305.323,262.452z"/>
</g>
</svg>
