<?xml version="1.0" encoding="utf-8"?>
<!-- Generator: Adobe Illustrator 17.0.0, SVG Export Plug-In . SVG Version: 6.00 Build 0)  -->
<!DOCTYPE svg PUBLIC "-//W3C//DTD SVG 1.1//EN" "http://www.w3.org/Graphics/SVG/1.1/DTD/svg11.dtd">
<svg version="1.1" id="Calque_1" xmlns="http://www.w3.org/2000/svg" xmlns:xlink="http://www.w3.org/1999/xlink" x="0px" y="0px"
	 width="524.41px" height="524.41px" viewBox="0 0 524.41 524.41" enable-background="new 0 0 524.41 524.41" xml:space="preserve">
<path fill="none" stroke="#020304" stroke-width="17" stroke-linejoin="round" stroke-miterlimit="10" d="M151.057,412.234h213.774
	c0-72.494-25.224-135.012-61.632-163.839c18.552-13.822,30.569-35.927,30.569-60.84c0-41.877-33.948-75.824-75.824-75.824
	c-41.877,0-75.824,33.948-75.824,75.824c0,24.914,12.017,47.018,30.569,60.84C176.282,277.222,151.057,339.74,151.057,412.234z"/>
<path fill="none" stroke="#020304" stroke-width="17" stroke-linejoin="round" stroke-miterlimit="10" d="M381.644,412.234h90.074
	c0-72.494-25.224-135.012-61.632-163.839c18.552-13.822,30.569-35.927,30.569-60.84c0-41.877-33.948-75.824-75.824-75.824
	c-14.953,0-28.896,4.329-40.642,11.801"/>
<path fill="none" stroke="#020304" stroke-width="17" stroke-linejoin="round" stroke-miterlimit="10" d="M44.189,412.234
	c0-72.494,25.224-135.012,61.632-163.839c-18.552-13.822-30.569-35.927-30.569-60.84c0-41.877,33.948-75.824,75.824-75.824
	c14.953,0,28.896,4.329,40.642,11.801"/>
<path fill="none" stroke="#020304" stroke-width="17" stroke-linejoin="round" stroke-miterlimit="10" d="M134.263,412.234H44.189"
	/>
</svg>
