<?xml version="1.0" encoding="utf-8"?>
<!-- Generator: Adobe Illustrator 17.0.0, SVG Export Plug-In . SVG Version: 6.00 Build 0)  -->
<!DOCTYPE svg PUBLIC "-//W3C//DTD SVG 1.1//EN" "http://www.w3.org/Graphics/SVG/1.1/DTD/svg11.dtd">
<svg version="1.1" id="Calque_1" xmlns="http://www.w3.org/2000/svg" xmlns:xlink="http://www.w3.org/1999/xlink" x="0px" y="0px"
	 width="524.41px" height="524.41px" viewBox="0 0 524.41 524.41" enable-background="new 0 0 524.41 524.41" xml:space="preserve">
<path fill="#FFFFFF" stroke="#010202" stroke-width="12.3071" stroke-linecap="round" stroke-linejoin="round" stroke-miterlimit="10" d="
	M366.08,348.065c0,4.798-3.89,8.688-8.688,8.688H67.173c-4.798,0-8.688-3.89-8.688-8.688V57.845c0-4.798,3.89-8.688,8.688-8.688
	h290.22c4.798,0,8.688,3.89,8.688,8.688V348.065L366.08,348.065z"/>
<circle fill="#010202" cx="104.266" cy="101.135" r="27.472"/>
<circle fill="#010202" cx="319.281" cy="97.066" r="27.472"/>
<circle fill="#FFFFFF" stroke="#010202" stroke-width="12.3071" stroke-linecap="round" stroke-linejoin="round" stroke-miterlimit="10" cx="311.144" cy="304.283" r="27.472"/>
<circle fill="#FFFFFF" stroke="#010202" stroke-width="12.3071" stroke-linecap="round" stroke-linejoin="round" stroke-miterlimit="10" cx="212.283" cy="202.955" r="27.472"/>
<circle fill="#010202" cx="104.266" cy="304.283" r="27.472"/>
<path fill="#FFFFFF" stroke="#010202" stroke-width="12.3071" stroke-linecap="round" stroke-linejoin="round" stroke-miterlimit="10" d="
	M464.941,449.393c0,4.798-3.89,8.688-8.688,8.688h-290.22c-4.798,0-8.688-3.89-8.688-8.688v-290.22c0-4.798,3.89-8.688,8.688-8.688
	h290.22c4.798,0,8.688,3.89,8.688,8.688V449.393z"/>
<circle fill="#010202" cx="410.005" cy="216.025" r="27.472"/>
<circle fill="#010202" cx="311.144" cy="304.283" r="27.472"/>
<circle fill="#010202" cx="216.689" cy="405.611" r="27.472"/>
</svg>
