<?xml version="1.0" encoding="utf-8"?>
<!-- Generator: Adobe Illustrator 17.0.0, SVG Export Plug-In . SVG Version: 6.00 Build 0)  -->
<!DOCTYPE svg PUBLIC "-//W3C//DTD SVG 1.1//EN" "http://www.w3.org/Graphics/SVG/1.1/DTD/svg11.dtd">
<svg version="1.1" id="Calque_1" xmlns="http://www.w3.org/2000/svg" xmlns:xlink="http://www.w3.org/1999/xlink" x="0px" y="0px"
	 width="524.41px" height="524.41px" viewBox="0 0 524.41 524.41" enable-background="new 0 0 524.41 524.41" xml:space="preserve">
<path fill="#010202" d="M490.894,105H34.887C22.819,105,13,114.666,13,126.547v272.292c0,11.881,9.819,21.546,21.887,21.546h456.007
	c12.068,0,21.887-9.665,21.887-21.546V126.547C512.781,114.666,502.963,105,490.894,105z M34.887,123.721h456.007
	c0.176,0,0.345,0.022,0.513,0.046c-0.231,0.16-0.461,0.322-0.682,0.503L262.288,311.217L33.85,124.27
	c-0.112-0.091-0.23-0.168-0.344-0.254C33.925,123.833,34.39,123.721,34.887,123.721z M494.059,398.838
	c0,1.557-1.42,2.825-3.165,2.825H34.887c-1.745,0-3.166-1.268-3.166-2.825V149.769l223.891,183.226
	c1.941,1.589,4.308,2.383,6.676,2.383c2.367,0,4.734-0.794,6.676-2.383l225.095-184.213V398.838z"/>
</svg>
