<?xml version="1.0" encoding="utf-8"?>
<!-- Generator: Adobe Illustrator 17.0.0, SVG Export Plug-In . SVG Version: 6.00 Build 0)  -->
<!DOCTYPE svg PUBLIC "-//W3C//DTD SVG 1.1//EN" "http://www.w3.org/Graphics/SVG/1.1/DTD/svg11.dtd">
<svg version="1.1" id="Calque_1" xmlns="http://www.w3.org/2000/svg" xmlns:xlink="http://www.w3.org/1999/xlink" x="0px" y="0px"
	 width="524.41px" height="524.41px" viewBox="0 0 524.41 524.41" enable-background="new 0 0 524.41 524.41" xml:space="preserve">
<path fill="none" stroke="#010202" stroke-width="17.4958" stroke-linecap="round" stroke-linejoin="round" stroke-miterlimit="10" d="
	M453.289,343.543V139.225V74.186V66.68l-37.435,7.507h-5.64v1.131l-234.675,47.055v218.964c-10.732-3.804-22.835-5.956-35.655-5.956
	c-44.049,0-79.759,25.27-79.759,56.442s35.709,56.442,79.759,56.442c44.049,0,79.759-25.27,79.759-56.442
	c0-3.075-0.36-6.091-1.029-9.032V182.497l191.602-35.329v154.921c-10.732-3.804-22.835-5.956-35.655-5.956
	c-44.049,0-79.759,25.27-79.759,56.442s35.709,56.442,79.759,56.442c44.049,0,79.759-25.27,79.759-56.442
	C454.318,349.5,453.958,346.485,453.289,343.543z"/>
</svg>
