<?xml version="1.0" encoding="utf-8"?>
<!-- Generator: Adobe Illustrator 17.0.0, SVG Export Plug-In . SVG Version: 6.00 Build 0)  -->
<!DOCTYPE svg PUBLIC "-//W3C//DTD SVG 1.1//EN" "http://www.w3.org/Graphics/SVG/1.1/DTD/svg11.dtd">
<svg version="1.1" id="Calque_1" xmlns="http://www.w3.org/2000/svg" xmlns:xlink="http://www.w3.org/1999/xlink" x="0px" y="0px"
	 width="524.41px" height="524.41px" viewBox="0 0 524.41 524.41" enable-background="new 0 0 524.41 524.41" xml:space="preserve">
<path fill="none" stroke="#010202" stroke-width="13.1321" stroke-linecap="round" stroke-linejoin="round" d="M466.881,185.499
	h-32.55v-24.186c0-5.12-4.15-9.27-9.27-9.27H57.529c-5.12,0-9.27,4.15-9.27,9.27v221.8c0,5.12,4.15,9.27,9.27,9.27h367.531
	c5.12,0,9.27-4.15,9.27-9.27l41.82-188.344C476.151,189.65,472,185.499,466.881,185.499z"/>
<path fill="none" stroke="#010202" stroke-width="13.1321" stroke-linecap="round" stroke-linejoin="round" d="M52.895,384.155
	l41.82-188.344c0-5.12,4.15-9.27,9.27-9.27h367.531"/>
<path fill="none" stroke="#010202" stroke-width="14.2189" stroke-linecap="round" stroke-linejoin="round" d="M282.346,151.261
	l34.417-54.536h84.323c0,0,25.519-1.377,25.519,17.209c0,25.852,0,37.327,0,37.327"/>
</svg>
