<?xml version="1.0" encoding="utf-8"?>
<!-- Generator: Adobe Illustrator 17.0.0, SVG Export Plug-In . SVG Version: 6.00 Build 0)  -->
<!DOCTYPE svg PUBLIC "-//W3C//DTD SVG 1.1//EN" "http://www.w3.org/Graphics/SVG/1.1/DTD/svg11.dtd">
<svg version="1.1" id="Calque_1" xmlns="http://www.w3.org/2000/svg" xmlns:xlink="http://www.w3.org/1999/xlink" x="0px" y="0px"
	 width="524.41px" height="524.41px" viewBox="0 0 524.41 524.41" enable-background="new 0 0 524.41 524.41" xml:space="preserve">
<path fill="#020304" d="M352.259,72c1.415,0,2.832,0.353,4.115,1.062c2.706,1.497,4.385,4.346,4.385,7.438v79.227h103.809
	c4.694,0,8.5,3.806,8.5,8.5v189.174c0,4.694-3.806,8.5-8.5,8.5h-103.81v79.227c0,3.092-1.679,5.94-4.385,7.438
	c-2.707,1.497-6.012,1.406-8.631-0.236L56.984,270.015C54.505,268.46,53,265.74,53,262.813s1.505-5.647,3.984-7.202L347.743,73.299
	C349.121,72.435,350.688,72,352.259,72z M456.067,176.727H352.258c-4.694,0-8.5-3.806-8.5-8.5V95.862L77.501,262.813
	l266.257,166.952v-72.364c0-4.694,3.806-8.5,8.5-8.5h103.809V176.727z"/>
</svg>
