<?xml version="1.0" encoding="utf-8"?>
<!-- Generator: Adobe Illustrator 17.0.0, SVG Export Plug-In . SVG Version: 6.00 Build 0)  -->
<!DOCTYPE svg PUBLIC "-//W3C//DTD SVG 1.1//EN" "http://www.w3.org/Graphics/SVG/1.1/DTD/svg11.dtd">
<svg version="1.1" id="Calque_1" xmlns="http://www.w3.org/2000/svg" xmlns:xlink="http://www.w3.org/1999/xlink" x="0px" y="0px"
	 width="524.41px" height="524.41px" viewBox="0 0 524.41 524.41" enable-background="new 0 0 524.41 524.41" xml:space="preserve">
<g>
	<path fill="#010202" d="M483.219,124.639c1.493,0,2.992,0.285,4.38,0.864c3.352,1.399,5.472,4.274,5.472,7.42v255.96
		c0,3.147-2.12,6.021-5.472,7.421s-7.356,1.08-10.339-0.822l-200.509-127.98c-2.454-1.566-3.895-4.008-3.895-6.598
		c0-2.59,1.441-5.032,3.895-6.598l200.51-127.98C479.007,125.21,481.106,124.639,483.219,124.639z M473.365,372.194V149.613
		l-174.361,111.29L473.365,372.194z"/>
	<path fill="#010202" d="M233.363,124.639c1.493,0,2.992,0.285,4.38,0.864c3.352,1.399,5.472,4.274,5.472,7.42v255.96
		c0,3.147-2.12,6.021-5.472,7.421s-7.356,1.08-10.339-0.822L26.895,267.501c-2.454-1.566-3.895-4.007-3.895-6.598
		s1.441-5.032,3.895-6.598l200.51-127.98C229.152,125.21,231.25,124.639,233.363,124.639z M223.509,372.194V149.613l-174.36,111.29
		L223.509,372.194z"/>
</g>
</svg>
