<?xml version="1.0" encoding="utf-8"?>
<!-- Generator: Adobe Illustrator 17.0.0, SVG Export Plug-In . SVG Version: 6.00 Build 0)  -->
<!DOCTYPE svg PUBLIC "-//W3C//DTD SVG 1.1//EN" "http://www.w3.org/Graphics/SVG/1.1/DTD/svg11.dtd">
<svg version="1.1" id="Calque_1" xmlns="http://www.w3.org/2000/svg" xmlns:xlink="http://www.w3.org/1999/xlink" x="0px" y="0px"
	 width="524.41px" height="524.41px" viewBox="0 0 524.41 524.41" enable-background="new 0 0 524.41 524.41" xml:space="preserve">
<g>
	<path fill="none" stroke="#010202" stroke-width="19.0568" stroke-linecap="round" stroke-linejoin="round" d="M461.637,446.861
		c0,7.429-6.023,13.452-13.452,13.452H77.024c-7.429,0-13.452-6.023-13.452-13.452V75.699c0-7.429,6.023-13.452,13.452-13.452
		h371.162c7.429,0,13.452,6.023,13.452,13.452L461.637,446.861L461.637,446.861z"/>
	
		<rect x="110.663" y="62.247" fill="none" stroke="#010202" stroke-width="19.0568" stroke-linecap="round" stroke-linejoin="round" width="211.001" height="105.87"/>
	
		<circle fill="none" stroke="#010202" stroke-width="19.0568" stroke-linecap="round" stroke-linejoin="round" cx="394.153" cy="122.85" r="34.058"/>
	<path fill="none" stroke="#010202" stroke-width="19.0568" stroke-linecap="round" stroke-linejoin="round" d="M394.153,385.172
		c0,7.429-6.023,13.452-13.452,13.452H205.025c-7.429,0-13.452-6.023-13.452-13.452v-53.546c0-7.429,6.023-13.452,13.452-13.452
		h175.676c7.429,0,13.452,6.023,13.452,13.452L394.153,385.172L394.153,385.172z"/>
	
		<line fill="none" stroke="#010202" stroke-width="19.0568" stroke-linecap="round" stroke-linejoin="round" x1="216.163" y1="346.712" x2="216.163" y2="371.808"/>
</g>
</svg>
