<?xml version="1.0" encoding="utf-8"?>
<!-- Generator: Adobe Illustrator 17.0.0, SVG Export Plug-In . SVG Version: 6.00 Build 0)  -->
<!DOCTYPE svg PUBLIC "-//W3C//DTD SVG 1.1//EN" "http://www.w3.org/Graphics/SVG/1.1/DTD/svg11.dtd">
<svg version="1.1" id="Calque_1" xmlns="http://www.w3.org/2000/svg" xmlns:xlink="http://www.w3.org/1999/xlink" x="0px" y="0px"
	 width="524.41px" height="524.41px" viewBox="0 0 524.41 524.41" enable-background="new 0 0 524.41 524.41" xml:space="preserve">
<path fill="#020304" d="M173.809,453.627c-1.415,0-2.832-0.353-4.115-1.062c-2.706-1.497-4.385-4.346-4.385-7.438V365.9H61.5
	c-4.694,0-8.5-3.806-8.5-8.5V168.226c0-4.694,3.806-8.5,8.5-8.5h103.809V80.5c0-3.092,1.679-5.94,4.385-7.437
	c2.707-1.497,6.012-1.406,8.631,0.236l290.758,182.314c2.479,1.555,3.984,4.275,3.984,7.202s-1.505,5.647-3.984,7.202
	L178.325,452.328C176.947,453.193,175.379,453.627,173.809,453.627z M70,348.901h103.809c4.694,0,8.5,3.806,8.5,8.5v72.364
	l266.257-166.951L182.309,95.862v72.364c0,4.694-3.806,8.5-8.5,8.5H70V348.901z"/>
</svg>
