<?xml version="1.0" encoding="utf-8"?>
<!-- Generator: Adobe Illustrator 17.0.0, SVG Export Plug-In . SVG Version: 6.00 Build 0)  -->
<!DOCTYPE svg PUBLIC "-//W3C//DTD SVG 1.1//EN" "http://www.w3.org/Graphics/SVG/1.1/DTD/svg11.dtd">
<svg version="1.1" id="Calque_1" xmlns="http://www.w3.org/2000/svg" xmlns:xlink="http://www.w3.org/1999/xlink" x="0px" y="0px"
	 width="524.41px" height="524.41px" viewBox="0 0 524.41 524.41" enable-background="new 0 0 524.41 524.41" xml:space="preserve">
<g>
	<path fill="none" stroke="#010202" stroke-width="17" stroke-linecap="round" stroke-linejoin="round" d="M79.86,40.29h366.043
		l3.287,133.992h-24.643c-7.172-32.67-16.286-53.938-27.343-63.8S362.887,95.69,327.429,95.69h-34.066v313.172
		c0,23.579,3.684,38.194,11.057,43.839c7.368,5.649,23.505,9.362,48.41,11.146v21.355h-178.4v-21.355
		c25.896-1.979,42.032-6.243,48.41-12.789c6.374-6.541,9.562-22.996,9.562-49.367v-306h-34.365c-33.87,0-56.927,4.884-69.179,14.643
		c-12.252,9.763-21.469,31.078-27.642,63.949H76.274L79.86,40.29z"/>
</g>
</svg>
