<?xml version="1.0" encoding="utf-8"?>
<!-- Generator: Adobe Illustrator 17.0.0, SVG Export Plug-In . SVG Version: 6.00 Build 0)  -->
<!DOCTYPE svg PUBLIC "-//W3C//DTD SVG 1.1//EN" "http://www.w3.org/Graphics/SVG/1.1/DTD/svg11.dtd">
<svg version="1.1" id="Calque_1" xmlns="http://www.w3.org/2000/svg" xmlns:xlink="http://www.w3.org/1999/xlink" x="0px" y="0px"
	 width="524.41px" height="524.41px" viewBox="0 0 524.41 524.41" enable-background="new 0 0 524.41 524.41" xml:space="preserve">
<path fill="none" stroke="#010202" stroke-width="16.7128" stroke-linecap="round" stroke-linejoin="round" stroke-miterlimit="10" d="
	M371.062,382.982c0,5.59-4.532,10.122-10.122,10.122H29.43c-5.59,0-10.122-4.532-10.122-10.122V145.751
	c0-5.59,4.532-10.122,10.122-10.122h331.51c5.59,0,10.122,4.532,10.122,10.122V382.982z"/>
<path fill="none" stroke="#010202" stroke-width="16.7128" stroke-linecap="round" stroke-linejoin="round" stroke-miterlimit="10" d="
	M492.667,145.269c3.206,0,5.805,2.599,5.805,5.805v212.832c0,3.206-2.599,5.805-5.805,5.805l-87.303-48.378
	c-3.206,0-5.805-2.599-5.805-5.805V199.452c0-3.206,2.599-5.805,5.805-5.805L492.667,145.269z"/>
<circle fill="none" stroke="#010202" stroke-width="14.4463" stroke-linecap="round" stroke-linejoin="round" stroke-miterlimit="10" cx="95.068" cy="302.006" r="37.335"/>
<line fill="none" stroke="#010202" stroke-width="14.4463" stroke-linecap="round" stroke-linejoin="round" stroke-miterlimit="10" x1="371.062" y1="198.15" x2="177.583" y2="198.15"/>
</svg>
